<svg width="1344" height="326" xmlns="http://www.w3.org/2000/svg" xmlns:xlink="http://www.w3.org/1999/xlink" overflow="hidden"><defs><clipPath id="clip0"><rect x="0" y="0" width="1344" height="326"/></clipPath><clipPath id="clip1"><rect x="4" y="1" width="321" height="322"/></clipPath><clipPath id="clip2"><rect x="4" y="1" width="322" height="322"/></clipPath><clipPath id="clip3"><rect x="4" y="1" width="322" height="322"/></clipPath></defs><g clip-path="url(#clip0)"><rect x="0" y="0" width="1344" height="325.667" fill="none"/><g clip-path="url(#clip1)"><g clip-path="url(#clip2)"><g clip-path="url(#clip3)"><path d="M330.089 150.793C330.089 239.359 258.317 311.156 169.781 311.156 81.2452 311.156 9.47281 239.359 9.47281 150.793 9.47281 62.2263 81.2452-9.57103 169.781-9.57103 258.317-9.57103 330.089 62.2263 330.089 150.793Z" transform="matrix(0.999346 0.0578503 -0.0608148 0.998154 4 1.99796)"/><path d="M325.456 150.793C325.456 236.799 255.758 306.522 169.781 306.522 83.804 306.522 14.1059 236.799 14.1059 150.793 14.1059 64.786 83.804-4.93613 169.781-4.93613 255.758-4.93613 325.456 64.786 325.456 150.793Z" fill="#FFFFFF" transform="matrix(0.999346 0.0578503 -0.0608148 0.998154 4 1.99796)"/><path d="M328.62 156.894C328.62 240.853 260.581 308.915 176.651 308.915 92.7212 308.915 24.6825 240.853 24.6825 156.894 24.6825 72.9351 92.7212 4.8731 176.651 4.8731 260.581 4.8731 328.62 72.9351 328.62 156.894Z" fill="#FFFFFF" transform="matrix(0.999346 0.0578503 -0.0608148 0.998154 4 1.99796)"/><path d="M162.23 266.923C150.238 265.948 139.077 263.549 119.195 257.671 93.639 250.117 83.1009 247.65 70.1131 246.182 63.2428 245.405 51.4236 245.741 44.2808 246.917 43.1345 247.106 42.1594 247.224 42.114 247.18 42.0686 247.136 42.7007 245.701 43.5187 243.991 44.9775 240.942 46.7065 238.309 48.163 236.92 48.8923 236.225 48.8967 236.205 48.8949 233.487 48.894 231.397 49.0125 230.379 49.4005 229.16 50.2981 226.34 52.1705 223.69 54.9281 221.339 55.5961 220.769 55.8205 220.427 55.6638 220.216 55.5397 220.05 54.7172 219.021 53.8362 217.929 51.8842 215.51 50.1491 212.444 49.4566 210.191 47.9244 205.206 49.9664 195.065 55.0678 182.323 58.248 174.381 61.3445 167.922 66.4126 158.66 72.0355 148.385 74.3864 144.616 76.2315 142.916 77.9358 141.346 78.822 141.039 81.6762 141.033 84.5087 141.026 86.2467 141.526 90.6265 143.606 95.6409 145.988 104.721 151.257 112.295 156.18 113.896 157.22 115.272 158.004 115.355 157.923 115.653 157.624 115.692 148.007 115.405 145.501 114.691 139.274 113.603 135.997 109.719 128.387 104.072 117.323 102.329 112.259 101.669 105 101.416 102.213 101.499 101.884 100.664 101.474 98.2267 100.277 95.9894 97.64 95.9829 93.045 95.9736 86.7163 97.4593 81.0353 101.291 78.8226 102.399 78.1825 103.901 77.0191 104.258 75.5363 105.961 68.467 110.861 59.0286 116.44 52.0704 128.162 37.4505 143.998 28.9677 163.286 26.5697 167.006 26.1073 176.88 26.1323 180.743 26.65 190.121 27.9068 199.836 30.6339 211.273 35.6199 225.661 41.8933 231.839 45.7954 237.551 52.2195 244.625 60.1735 247.891 69.5161 244.978 73.4638 244.646 73.9146 244.061 74.4812 243.678 74.7232L242.984 75.163 243.449 77.4321C243.791 79.1032 243.969 81.4784 244.125 86.4447 244.354 93.7188 244.323 93.5399 246.084 98.2146 247.085 100.875 247.564 103.366 247.564 105.916 247.564 108.855 247.128 110.026 245.245 112.135 243.297 114.317 243.149 114.585 243.157 115.916 243.17 118.3 244.215 120.829 248.51 128.866 253.951 139.049 254.92 141.373 254.92 144.226 254.92 146.192 254.536 147.132 253.257 148.287 251.45 149.917 249.394 150.706 245.334 151.329 242.332 151.79 241.407 152.24 240.591 153.634 239.852 154.899 239.933 157.593 240.785 160.027 241.525 162.147 241.573 162.71 241.09 163.638 240.575 164.629 239.799 165.256 237.672 166.398 235.505 167.563 235.546 167.426 236.624 169.94 236.97 170.75 237.257 171.837 237.259 172.356 237.266 173.367 237.073 173.602 234.342 175.916 231.705 178.148 231.398 180.193 232.972 185.021 234.161 188.668 234.245 190.818 233.282 192.923 231.926 195.885 228.737 198.329 224.99 199.277 223.178 199.736 222.494 199.782 219.487 199.655 215.628 199.49 213.737 199.129 204.038 196.706 200.532 195.83 197.137 195.036 196.495 194.943 195.003 194.726 194.025 195.121 193.35 196.213 192.85 197.023 192.155 199.212 192.148 199.997 192.147 200.224 193.884 201.55 196.376 203.223 210.875 212.962 218.753 221.061 219.061 226.547 219.17 228.481 218.607 229.471 216.99 230.186 215.49 230.85 212.427 230.724 209.801 229.889 204.775 228.291 197.072 223.381 184.556 213.797 184.242 213.556 184.358 213.331 185.342 212.279 186.887 210.627 188.26 208.462 189.215 206.165 190.121 203.988 191.41 199.104 191.41 197.845L191.41 196.991 190.132 197.166C189.429 197.263 187.691 197.611 186.27 197.939 184.849 198.267 183.051 198.659 182.276 198.81 180.898 199.079 180.357 199.489 181.38 199.489 182.209 199.489 183.28 200.262 183.712 201.173 184.562 202.964 183.687 206.808 181.8 209.578 181.353 210.232 180.897 210.768 180.786 210.769 180.676 210.769 178.193 209.08 175.269 207.016 160.147 196.338 147.096 188.226 125.08 175.818 112.511 168.736 99.2332 160.571 94.7957 157.198 92.0087 155.079 92.3692 155.613 95.5955 158.382 101.389 163.357 107.834 167.567 129.248 180.367 150.028 192.789 160.487 199.927 178.659 214.091 193.26 225.472 199.886 229.844 206.876 232.709 214.991 236.035 221.571 233.919 221.571 227.985 221.571 224.716 219.865 220.994 215.87 215.551L215.15 214.57 216.032 215.551C217.377 217.046 220.447 221.495 221.31 223.198 223.041 226.618 223.698 230.208 223.059 232.76 222.394 235.416 220.257 238.641 217.675 240.887 212.139 245.702 205.54 248.525 194.598 250.757 191.735 251.341 191.463 251.436 192.585 251.453 193.772 251.473 197.409 251.158 199.503 250.855 200.525 250.707 196.203 252.403 192.814 253.48 191.496 253.899 190.451 254.275 190.491 254.316 190.617 254.442 196.337 253.248 198.031 252.742 202.436 251.426 207.543 249.3 209.294 248.053 209.682 247.777 210.062 247.551 210.137 247.551 210.373 247.551 209.373 249.685 208.492 251.062 206.539 254.115 203.192 256.981 199.296 258.937 193.814 261.689 185.657 263.244 178.537 262.894 166.952 262.325 158.249 260.666 136.604 254.903 118.356 250.044 112.854 248.734 104.604 247.287 99.9199 246.465 99.8106 246.49 103.378 247.566 105.198 248.116 109.778 249.505 113.554 250.653 150.364 261.845 164.528 265.331 177.31 266.342 179.752 266.535 179.757 266.537 178.413 266.722 176.296 267.016 165.08 267.155 162.23 266.923ZM142.244 248.359C138.249 246.298 127.504 241.249 124.101 239.832 122.077 238.989 118.93 237.78 117.11 237.147 113.654 235.944 106.077 233.736 105.925 233.888 105.841 233.971 108.389 235.03 116.202 238.162 118.062 238.907 119.549 239.554 119.504 239.599 119.46 239.643 118.047 239.243 116.366 238.708 113.114 237.675 105.423 235.732 100.558 234.715 94.9458 233.542 79.3459 231.531 78.9479 231.929 78.8852 231.991 79.5838 232.118 80.5003 232.21 87.514 232.915 104.731 236.84 116.742 240.474 119.356 241.265 140.841 248.274 142.49 248.875 144.135 249.474 144.047 249.288 142.244 248.359ZM203.916 236.151C203.916 235.901 200.395 234.451 194.598 232.315 180.889 227.265 176.958 225.755 164.682 220.82 157.601 217.974 150.208 215.033 148.252 214.286 139.26 210.849 131.223 207.863 125.879 205.973 117.045 202.847 104.35 198.879 103.787 199.067 103.654 199.111 104.638 199.546 105.975 200.033 107.311 200.52 111.549 202.149 115.393 203.651 119.237 205.153 124.093 207.051 126.183 207.868 144.164 214.899 154.874 219.356 175.839 228.537 178.371 229.647 183.824 231.831 189.417 233.977 190.276 234.307 191.018 234.538 191.064 234.492 191.11 234.446 189.028 233.326 186.437 232.005 183.844 230.685 181.944 229.681 182.214 229.776 182.484 229.872 184.415 230.535 186.506 231.249 188.596 231.964 192.223 233.282 194.564 234.179 196.905 235.075 198.869 235.76 198.929 235.701 199.035 235.594 195.898 233.834 194.992 233.492 194.737 233.396 194.58 233.265 194.644 233.2 194.739 233.106 197.159 233.907 203.855 236.25 203.888 236.261 203.916 236.217 203.916 236.151ZM232.734 191.959C233.312 190.122 233.108 188.054 232.027 184.776 231.559 183.36 231.101 181.793 231.008 181.294 230.846 180.422 230.786 180.375 229.455 180.097 227.704 179.731 225.479 180.043 223.28 180.963 222.407 181.328 220.765 181.953 219.63 182.35 216.24 183.539 214.95 184.528 214.95 185.94 214.95 187.037 216.469 189.438 218.094 190.91 221.221 193.742 223.459 194.28 227.389 193.142 229.302 192.589 229.438 192.579 230.033 192.97 230.391 193.204 230.727 193.713 230.815 194.151L230.969 194.921 231.637 194.121C232.005 193.68 232.498 192.708 232.734 191.959ZM222.803 177.99C223.168 177.775 223.864 176.907 224.35 176.063 224.891 175.121 225.574 174.316 226.116 173.982 227.308 173.245 229.481 173.105 232.227 173.591 234.279 173.954 234.479 173.952 235.292 173.554 235.77 173.32 236.202 172.913 236.251 172.649 236.422 171.722 235.779 169.666 235.033 168.762 234.106 167.636 233.512 167.605 229.517 168.469 227.365 168.935 225.962 169.082 223.691 169.082 221.381 169.082 220.576 169.169 220.154 169.464 219.659 169.811 219.609 169.81 219.609 169.454 219.609 169.239 219.825 168.64 220.089 168.124 220.562 167.196 221.604 166.238 224.315 164.234 225.082 163.668 226.02 162.798 226.399 162.3 227.005 161.506 227.089 161.186 227.089 159.66 227.089 158.074 226.978 157.693 225.801 155.218 224.322 152.107 224.231 151.332 225.018 148.493 225.296 147.492 226.448 144.68 227.578 142.245 230.161 136.68 230.471 135.622 230.361 132.71 230.29 130.801 230.166 130.238 229.541 128.992 228.615 127.145 227.788 126.642 225.283 126.406 224.254 126.309 223.19 126.15 222.92 126.055 222.509 125.909 222.53 125.974 223.047 126.454 223.387 126.77 223.994 127.277 224.395 127.583L225.127 128.138 223.818 127.639C223.097 127.364 222.159 126.962 221.734 126.744L220.959 126.348 221.449 126.907C221.719 127.215 222.369 127.782 222.896 128.167 224.065 129.022 223.783 129.074 222.367 128.264 221.33 127.672 221.325 127.671 221.601 128.206 221.8 128.594 221.631 128.51 220.993 127.903 219.899 126.863 219.665 127.003 220.483 128.207 221.249 129.333 220.99 129.348 219.389 128.271 218.701 127.807 218.139 127.484 218.139 127.551 218.139 127.812 218.715 128.772 219.211 129.339L219.733 129.933 218.751 129.362C218.212 129.046 217.464 128.506 217.089 128.161L216.405 127.534 216.78 128.593C217.185 129.742 217.245 129.697 215.993 129.185 215.824 129.116 215.686 129.194 215.686 129.359 215.686 129.782 214.151 129.459 212.758 128.742 212.143 128.426 210.592 127.275 209.311 126.185 206.265 123.595 205.044 122.981 202.948 122.986 200.073 122.994 198.518 124.458 198.453 127.22 198.431 128.177 198.57 128.786 198.962 129.451 199.65 130.617 199.642 130.666 198.828 130.256 197.996 129.837 196.805 129.539 196.805 129.749 196.805 129.834 197.18 130.416 197.639 131.041 198.668 132.443 200.572 134.262 205.02 138.096 209.904 142.305 211.273 143.898 211.273 145.373 211.273 145.742 210.584 146.821 209.445 148.24 206.314 152.141 205.142 154.995 205.142 158.726 205.142 160.954 205.506 162.201 206.748 164.224 207.957 166.191 208.318 167.373 208.592 170.253 209.133 175.946 211.288 178.26 215.656 177.84 216.608 177.75 217.529 177.849 218.629 178.162 220.38 178.661 221.764 178.604 222.803 177.99ZM228.757 165.494C229.727 165.273 231.501 164.662 232.699 164.136 235.489 162.91 236.65 162.746 238.384 163.336 239.606 163.751 239.753 163.757 240.111 163.399 240.645 162.864 240.624 162.161 240.008 160.009 239.718 158.998 239.42 157.757 239.343 157.251 239.093 155.586 238.039 156.098 236.437 158.66 235.717 159.813 235.427 160.012 231.612 161.971 227.901 163.876 225.004 165.554 225.004 165.798 225.004 166.033 227.143 165.86 228.757 165.494ZM157.722 147.627C159.184 146.898 159.777 145.869 159.777 144.061 159.777 143.392 159.71 142.845 159.629 142.845 159.546 142.845 159.065 143.173 158.558 143.575 156.918 144.873 154.586 145.609 150.354 146.163L149.147 146.32 149.972 146.843C152.334 148.339 155.625 148.671 157.722 147.627ZM238.737 144.576C238.737 142.226 235.59 140.694 234.423 142.475 234.077 143.005 234.068 143.208 234.359 144.125 234.637 145 234.874 145.256 235.822 145.706 236.445 145.999 237.031 146.442 237.127 146.688 237.282 147.087 237.379 147.048 238.018 146.335 238.553 145.738 238.737 145.289 238.737 144.576ZM253.096 143.967C253.797 143.454 253.643 141.57 252.708 139.235 252.289 138.189 250.265 134.133 248.21 130.22 246.156 126.306 244.118 122.315 243.681 121.35 241.621 116.791 241.82 112.94 244.303 109.314 244.928 108.402 245.708 107.049 246.039 106.307 246.926 104.314 246.71 102.555 244.955 97.4797L243.555 93.4333 243.376 87.0578C243.235 82.009 243.088 80.1463 242.668 78.1074 242.377 76.6912 242.063 75.457 241.97 75.3647 241.779 75.1746 238.21 75.1608 234.2 75.3348 232.716 75.3991 230.345 75.4949 228.928 75.5479 227.512 75.6007 225.194 75.8592 223.778 76.1222 222.362 76.3851 220.376 76.6746 219.365 76.7654 218.353 76.8561 216.832 77.088 215.985 77.2808 215.138 77.4735 214.089 77.621 213.656 77.6086 212.929 77.5877 207.191 78.9194 206.944 79.1662 206.885 79.2255 207.448 79.3506 208.196 79.444 209.977 79.6666 214.023 80.754 214.337 81.0947 214.511 81.2837 214.416 81.3215 214.012 81.2241 213.369 81.0686 211.437 81.5235 209.83 82.2086L208.755 82.6668 210.32 83.4409C213.367 84.9473 216.629 88.255 217.757 90.9812L218.163 91.962 217.052 90.8738C215.752 89.5996 215.397 89.6745 216.26 91.0411 217.439 92.9097 219.556 97.374 219.98 98.8884 220.486 100.692 220.354 101.96 219.573 102.79 219.272 103.111 218.178 103.87 217.14 104.479 214.844 105.825 212.162 108.232 211.489 109.551 211.216 110.086 211.032 110.562 211.08 110.611 211.128 110.659 211.936 110.415 212.875 110.069 218.433 108.025 221.699 107.407 226.844 107.427 230.473 107.442 231.535 107.545 235.058 108.224 237.283 108.653 239.638 109.004 240.29 109.004 240.942 109.004 241.433 109.087 241.38 109.188 239.019 113.784 238.406 115.732 238.385 118.69 238.37 121.018 238.414 121.236 239.25 122.981 239.736 123.994 240.775 125.814 241.561 127.028 243.557 130.11 244.286 131.849 245.114 135.497 246.177 140.18 247.531 142.418 250.065 143.681 251.498 144.394 252.396 144.479 253.096 143.967ZM144.896 142.17C143.766 140.377 142.225 138.605 140.129 136.693 137.422 134.222 137.034 133.943 137.471 134.784 138.56 136.88 140.769 139.377 143.593 141.706 145.155 142.995 145.492 143.114 144.896 142.17ZM156.529 140.643C157.728 140.099 158.797 139.048 158.797 138.414 158.797 138.009 158.743 138.004 158.039 138.355 157.11 138.819 155.149 138.683 154.335 138.099 154.024 137.876 153.254 137.322 152.625 136.868 151.529 136.078 151.368 136.038 148.824 135.93 145.956 135.808 145.152 135.541 144.061 134.345 142.433 132.561 141.631 130.173 141.631 127.108 141.631 124.591 142.27 122.869 143.689 121.562 144.62 120.702 144.934 120.567 146.315 120.425 149.05 120.145 149.623 120.021 150.405 119.546 151.154 119.09 152.101 117.92 151.889 117.71 151.831 117.651 151.126 117.872 150.324 118.202 148.482 118.959 146.731 119.008 146.045 118.322 145.257 117.535 145.382 115.957 146.334 114.663 147.097 113.625 147.1 113.607 146.518 113.784 145.41 114.12 144.386 114.891 142.763 116.612 140.092 119.444 138.942 122.246 138.937 125.934 138.934 128.447 139.382 130.348 140.538 132.716 142.216 136.153 143.918 137.8 147.222 139.187 152.189 141.272 154.388 141.616 156.529 140.643ZM162.23 129.026C162.23 127.773 161.318 126.208 160.1 125.369 159.164 124.725 157.82 124.121 157.665 124.276 157.621 124.322 157.867 124.776 158.213 125.285 159.534 127.23 160.12 128.886 160.133 130.716L160.145 132.441 161.187 131.221C162.033 130.229 162.23 129.817 162.23 129.026ZM222.71 123.53C222.865 123.431 223.124 122.467 223.284 121.388 223.687 118.689 224.228 116.417 224.67 115.562 224.874 115.167 224.981 114.785 224.909 114.713 224.689 114.493 221.595 115.359 220.38 115.98 218.984 116.694 217.104 118.283 217.293 118.588 217.369 118.712 218.17 118.826 219.073 118.842 219.975 118.858 221.044 118.95 221.449 119.045 222.09 119.197 221.996 119.242 220.713 119.393 219.904 119.488 218.774 119.624 218.203 119.694 216.532 119.901 215.911 121.19 216.993 122.207 218.135 123.279 221.785 124.123 222.71 123.53ZM136.991 119.181C139.536 112.976 143.059 109.566 147.199 109.3 148.84 109.194 149.127 109.251 150.574 109.964 153.02 111.168 154.649 113.378 155.381 116.484 155.937 118.846 155.807 118.808 157.73 117.154 160.553 114.724 160.943 113.057 158.914 112.101 158.379 111.848 157.003 110.754 155.857 109.669 152.55 106.539 149.458 105.424 145.771 106.033 143.319 106.438 141.544 107.369 139.648 109.245 137.756 111.117 136.713 113.099 136.134 115.921 135.716 117.962 135.598 121.765 135.966 121.375 136.087 121.247 136.549 120.259 136.991 119.181ZM105.973 73.7552C107.175 69.9173 107.399 69.6804 109.832 65.2141 114.103 58.4349 113.933 58.19 122.332 49.5436 128.052 43.6544 131.831 41.4531 138.321 37.8397 144.314 34.5034 152.295 31.719 158.269 30.8804 161.962 30.362 168.189 30.5332 171.425 31.2421 173.758 31.7531 177.322 32.8354 177.897 33.2072 178.174 33.386 178.003 33.891 177.005 35.8441 174.201 41.3315 172.422 47.685 171.848 54.2601 171.739 55.5077 171.712 56.5284 171.786 56.5284 172.604 56.5284 192.323 50.9158 194.186 50.1526 194.48 50.0324 196.321 49.3612 198.276 48.6611 206.052 45.8772 213.947 42.0032 216.358 39.7874 217.04 39.1606 217.217 39.2962 212.498 36.8367 200.38 30.521 185.893 27.1786 172.859 27.691 153.381 28.4565 137.123 34.8179 123.474 47.0126 115.638 54.0147 108.845 64.0951 106.044 72.794 104.826 77.9028 105.042 76.7959 105.973 73.7552ZM212.132 67.5018C211.765 64.1755 211.021 61.0584 210.158 59.2379 209.298 57.4235 207.138 53.5858 206.975 53.5858 206.93 53.5858 207.229 54.4962 207.64 55.6088 208.05 56.7215 208.492 58.0181 208.62 58.4901 208.749 58.9622 209.449 61.0036 210.176 63.0266 210.902 65.0496 211.625 67.229 211.782 67.8696 211.938 68.5102 212.119 69.0344 212.184 69.0344 212.249 69.0344 212.226 68.3447 212.132 67.5018ZM204.067 67.0037C203.821 64.2905 203.063 61.4619 201.68 58.0976 200.358 54.8824 199.576 53.646 200.622 56.4249 201.415 58.5334 203.263 65.0015 203.681 67.134 203.86 68.0443 204.056 68.7892 204.117 68.7892 204.178 68.7892 204.156 67.9857 204.067 67.0037ZM209.313 65.3561C208.897 62.7131 208.07 60.44 206.483 57.5706 205.719 56.1881 205.06 55.0571 205.02 55.0571 204.979 55.0571 205.416 56.2985 205.992 57.8158 207.242 61.1117 208.948 66.3189 209.225 67.6857 209.416 68.6276 209.428 68.6374 209.513 67.931 209.562 67.5263 209.471 66.3676 209.313 65.3561ZM218.625 62.6406C218.034 59.7374 216.802 56.2642 215.405 53.5574 214.11 51.0505 213.554 50.3732 214.456 52.4032 216.177 56.2735 218.747 64.7957 218.915 67.1953 218.944 67.5999 219.006 67.311 219.054 66.5535 219.104 65.7641 218.921 64.0934 218.625 62.6406ZM235.252 65.4175C235.145 63.2465 235.161 63.1281 235.423 64.1301 236.054 66.5386 236.112 65.4573 235.509 62.5362 234.482 57.565 232.686 54.0626 229.345 50.5206 229.046 50.2041 229.578 51.2418 230.32 52.4231 230.877 53.311 231.953 55.7928 231.779 55.7928 231.733 55.7928 231.278 55.1644 230.768 54.3966 230.257 53.6286 229.233 52.2768 228.49 51.3926 227.748 50.5085 227.117 49.756 227.091 49.7206 227.064 49.6853 227.674 50.9178 228.446 52.4596 229.818 55.1972 231.339 59.3083 232.99 64.7431 233.602 66.7603 233.812 67.2216 233.821 66.5725 233.83 65.8246 233.524 64.3455 232.986 62.5362 232.905 62.2665 233.22 62.7993 233.686 63.7203 234.152 64.6414 234.672 65.938 234.841 66.6017 235.012 67.2653 235.2 67.8083 235.26 67.8083 235.321 67.8083 235.317 66.7324 235.252 65.4175ZM227.189 65.6014C227.22 65.9385 227.35 66.4351 227.477 66.7048 227.701 67.1818 227.6 63.3502 227.328 61.0649L227.211 60.084 227.603 61.0649C227.819 61.6044 228.319 63.094 228.713 64.3753 229.384 66.5492 229.422 66.6147 229.289 65.3561 229.008 62.7073 228.391 60.3082 227.648 58.9806 226.415 56.7757 223.736 52.8989 221.588 50.2141 219.67 47.8143 218.827 46.9673 219.729 48.3433 221.375 50.8553 222.723 53.5672 223.556 56.038 223.967 57.261 223.97 57.3339 223.587 56.8204 222.412 55.2429 220.242 52.5907 219.235 51.5015L218.102 50.2755 218.697 51.3852C220.162 54.1123 223.124 62.468 223.642 65.332L223.979 67.1953 224.002 64.7034C224.023 62.2762 223.616 59.3637 223.048 57.8771 222.663 56.8717 223.079 57.3392 224.138 59.1012 225.105 60.7134 226.337 64.2785 226.645 66.3583L226.841 67.6857 226.987 66.3371C227.066 65.5952 227.157 65.2642 227.189 65.6014ZM239.333 65.677C238.228 60.3396 236.439 57.0076 232.248 52.4823L231.34 51.5015 231.818 52.3597C232.081 52.8318 232.739 53.9904 233.281 54.9345 234.855 57.6797 238.641 65.1258 239.112 66.4038 239.349 67.0474 239.577 67.5401 239.618 67.4986 239.66 67.4572 239.531 66.6374 239.333 65.677ZM213.115 63.0137C212.535 60.7233 210.6 56.3541 209.914 55.7849 209.585 55.512 209.912 56.4394 212.137 62.0915 212.943 64.1397 213.632 65.7339 213.668 65.6342 213.704 65.5345 213.455 64.3553 213.115 63.0137ZM241.685 63.6295C240.463 58.8218 238.475 55.0234 235.914 52.605L235.004 51.7467 235.674 53.0954 236.343 54.4441 234.685 52.7276C233.773 51.7835 233.115 51.1766 233.223 51.3789 233.332 51.5812 235.047 54.2295 237.035 57.2641 239.023 60.2986 240.958 63.4128 241.335 64.1846 241.712 64.9562 242.049 65.5586 242.084 65.523 242.12 65.4876 241.94 64.6355 241.685 63.6295ZM221.703 61.494C221.344 59.5359 219.647 55.3023 219.221 55.3023 219.169 55.3023 219.33 55.8265 219.579 56.4671 219.828 57.1077 220.387 58.7077 220.822 60.0227 221.639 62.4968 221.995 63.0913 221.703 61.494ZM229.551 59.9269C229.336 59.0872 228.864 57.7306 228.501 56.9124 227.875 55.5011 224.894 50.6432 224.654 50.6432 224.592 50.6432 224.825 51.2777 225.171 52.0532 225.518 52.8287 226.163 54.3524 226.605 55.4393 227.046 56.5262 227.684 57.8224 228.021 58.3197 228.359 58.8171 228.891 59.8411 229.204 60.5953 229.905 62.2881 230.074 61.9647 229.551 59.9269Z" transform="matrix(1.00102 0 0 1 4 1.99796)"/></g></g></g><text font-family="Times New Roman,Times New Roman_MSFontService,sans-serif" font-weight="400" font-size="98.0464" transform="matrix(1 0 0 0.998979 258.183 306)">S</text><text font-family="Times New Roman,Times New Roman_MSFontService,sans-serif" font-weight="400" font-size="78.4371" transform="matrix(1 0 0 0.998979 312.85 306)">AINT</text><text font-family="Times New Roman,Times New Roman_MSFontService,sans-serif" font-weight="400" font-size="98.0464" transform="matrix(1 0 0 0.998979 518.016 306)">A</text><text font-family="Times New Roman,Times New Roman_MSFontService,sans-serif" font-weight="400" font-size="78.4371" transform="matrix(1 0 0 0.998979 588.85 306)">NTHONY</text><text font-family="Times New Roman,Times New Roman_MSFontService,sans-serif" font-weight="400" font-size="78.4371" transform="matrix(1 0 0 0.998979 941.77 306)">OF</text><text font-family="Times New Roman,Times New Roman_MSFontService,sans-serif" font-weight="400" font-size="98.0464" transform="matrix(1 0 0 0.998979 1066.6 306)">P</text><text font-family="Times New Roman,Times New Roman_MSFontService,sans-serif" font-weight="400" font-size="78.4371" transform="matrix(1 0 0 0.998979 1112.26 306)">ADUA</text></g></svg>
